P2
20 20
255
126 	126 	126 	126 	126 	126 	126 	126 	126 	126 	126 	126 	126 	126 	126 	126 	126 	126 	126 	126 	
126 	0 	0 	0 	0 	0 	0 	0 	0 	0 	0 	0 	0 	0 	0 	0 	0 	0 	0 	0 	
126 	126 	126 	126 	126 	126 	126 	126 	126 	126 	126 	126 	126 	126 	126 	126 	126 	126 	126 	126 	
0 	0 	0 	0 	0 	0 	0 	0 	0 	0 	0 	0 	0 	0 	0 	0 	0 	0 	0 	126 	
126 	126 	126 	126 	126 	126 	126 	126 	126 	126 	126 	126 	126 	126 	126 	126 	126 	126 	126 	126 	
126 	0 	0 	0 	0 	0 	0 	0 	0 	0 	0 	0 	0 	0 	0 	0 	0 	0 	0 	0 	
126 	126 	126 	126 	126 	126 	126 	126 	126 	126 	126 	126 	126 	126 	126 	126 	126 	126 	126 	126 	
0 	0 	0 	0 	0 	0 	0 	0 	0 	0 	0 	0 	0 	0 	0 	0 	0 	0 	0 	126 	
126 	126 	126 	126 	126 	126 	126 	126 	126 	126 	126 	126 	126 	126 	126 	126 	126 	126 	126 	126 	
126 	0 	0 	0 	0 	0 	0 	0 	0 	0 	0 	0 	0 	0 	0 	0 	0 	0 	0 	0 	
126 	126 	126 	126 	126 	126 	126 	126 	126 	126 	126 	126 	126 	126 	126 	126 	126 	126 	126 	126 	
0 	0 	0 	0 	0 	0 	0 	0 	0 	0 	0 	0 	0 	0 	0 	0 	0 	0 	0 	126 	
126 	126 	126 	126 	126 	126 	126 	126 	126 	126 	126 	126 	126 	126 	126 	126 	126 	126 	126 	126 	
126 	0 	0 	0 	0 	0 	0 	0 	0 	0 	0 	0 	0 	0 	0 	0 	0 	0 	0 	0 	
126 	126 	126 	126 	126 	126 	126 	126 	126 	126 	126 	126 	126 	126 	126 	126 	126 	126 	126 	126 	
0 	0 	0 	0 	0 	0 	0 	0 	0 	0 	0 	0 	0 	0 	0 	0 	0 	0 	0 	126 	
126 	126 	126 	126 	126 	126 	126 	126 	126 	126 	126 	126 	126 	126 	126 	126 	126 	126 	126 	126 	
126 	0 	0 	0 	0 	0 	0 	0 	0 	0 	0 	0 	0 	0 	0 	0 	0 	0 	0 	0 	
126 	126 	126 	126 	126 	126 	126 	126 	126 	126 	126 	126 	126 	126 	126 	126 	126 	126 	126 	126 	
0 	0 	0 	0 	0 	0 	0 	0 	0 	0 	0 	0 	0 	0 	0 	0 	0 	0 	0 	126 	
