P2
10 10
255
230 	230 	230 	230 	230 	0 	71 	71 	71 	71 	
230 	230 	230 	230 	230 	230 	0 	71 	71 	71 	
230 	230 	230 	230 	230 	230 	230 	0 	71 	71 	
230 	230 	230 	230 	230 	230 	0 	71 	71 	71 	
230 	230 	230 	230 	230 	230 	0 	71 	71 	71 	
230 	230 	230 	230 	230 	0 	71 	71 	71 	71 	
230 	230 	230 	230 	230 	230 	0 	71 	71 	71 	
230 	230 	230 	230 	230 	0 	71 	71 	71 	71 	
230 	230 	230 	230 	230 	230 	0 	71 	71 	71 	
230 	230 	230 	230 	230 	230 	0 	71 	71 	71 	
